<svg xmlns="http://www.w3.org/2000/svg"
     xmlns:xlink="http://www.w3.org/1999/xlink"
     width="60.000000" height="100.000000">
  <defs>
    <g id="terminal" stroke-width="1" stroke-linecap="square">
      <line x1="0" y1="0" x2="0" y2="4" stroke="#0000FF" />
      <line x1="0" y1="1" x2="0" y2="4" stroke="#FF0000" />
    </g>
  </defs>
  <g transform="translate(7,50)" stroke-linecap="square">
    <text transform="translate(65.8, 10.9)" font-family="Sans Serif,MS Sans Serif" font-size="18pt" fill="#000000"></text>
    <g stroke-width="1" fill="none" stroke="#000000" transform="translate(0,-40) rotate(90)" >
      <line x1="0" y1="0" x2="30" y2="0" />
      </g>
    <g stroke-width="1" fill="none" stroke="#000000" transform="translate(0,10) rotate(90)" >
      <line x1="0" y1="0" x2="30" y2="0" />
      </g>
    <g stroke-width="1" fill="none" stroke="#000000" transform="translate(10,-10) rotate(90)" >
      <line x1="0" y1="0" x2="20" y2="0" />
      </g>
    <g stroke-width="1" fill="none" stroke="#000000" transform="translate(0,-10)" >
      <line x1="0" y1="0" x2="10" y2="0" />
      </g>
    <g stroke-width="1" fill="none" stroke="#000000" transform="translate(0,10)" >
      <line x1="0" y1="0" x2="10" y2="0" />
      </g>
    <g stroke-width="1" fill="none" stroke="#000000" transform="translate(20,-40) rotate(90)" >
      <line x1="0" y1="0" x2="30" y2="0" />
      </g>
    <g stroke-width="1" fill="none" stroke="#000000" transform="translate(20,10) rotate(90)" >
      <line x1="0" y1="0" x2="30" y2="0" />
      </g>
    <g stroke-width="1" fill="none" stroke="#000000" transform="translate(30,-10) rotate(90)" >
      <line x1="0" y1="0" x2="20" y2="0" />
      </g>
    <g stroke-width="1" fill="none" stroke="#000000" transform="translate(20,-10)" >
      <line x1="0" y1="0" x2="10" y2="0" />
      </g>
    <g stroke-width="1" fill="none" stroke="#000000" transform="translate(20,10)" >
      <line x1="0" y1="0" x2="10" y2="0" />
      </g>
    <g stroke-width="1" fill="none" stroke="#000000" transform="translate(40,-40) rotate(90)" >
      <line x1="0" y1="0" x2="30" y2="0" />
      </g>
    <g stroke-width="1" fill="none" stroke="#000000" transform="translate(40,10) rotate(90)" >
      <line x1="0" y1="0" x2="30" y2="0" />
      </g>
    <g stroke-width="1" fill="none" stroke="#000000" transform="translate(50,-10) rotate(90)" >
      <line x1="0" y1="0" x2="20" y2="0" />
      </g>
    <g stroke-width="1" fill="none" stroke="#000000" transform="translate(40,-10)" >
      <line x1="0" y1="0" x2="10" y2="0" />
      </g>
    <g stroke-width="1" fill="none" stroke="#000000" transform="translate(40,10)" >
      <line x1="0" y1="0" x2="10" y2="0" />
      </g>
    <use xlink:href="#terminal" x="0" y="-42" />
    <use xlink:href="#terminal" x="0" y="42" transform="rotate(180 0 42)" />
    <use xlink:href="#terminal" x="20" y="-42" />
    <use xlink:href="#terminal" x="20" y="42" transform="rotate(180 20 42)" />
    <use xlink:href="#terminal" x="40" y="-42" />
    <use xlink:href="#terminal" x="40" y="42" transform="rotate(180 40 42)" />
  </g>
  Your Browser does not support inline SVG!
</svg>
